<?xml version="1.0" encoding="UTF-8" standalone="no"?>
<!-- Created with Inkscape (http://www.inkscape.org/) -->

<svg
   xmlns:dc="http://purl.org/dc/elements/1.1/"
   xmlns:cc="http://creativecommons.org/ns#"
   xmlns:rdf="http://www.w3.org/1999/02/22-rdf-syntax-ns#"
   xmlns:svg="http://www.w3.org/2000/svg"
   xmlns="http://www.w3.org/2000/svg"
   xmlns:sodipodi="http://sodipodi.sourceforge.net/DTD/sodipodi-0.dtd"
   xmlns:inkscape="http://www.inkscape.org/namespaces/inkscape"
   width="87.056412mm"
   height="85.00148mm"
   viewBox="0 0 87.056412 85.00148"
   version="1.1"
   id="svg8"
   inkscape:version="0.92.2 5c3e80d, 2017-08-06"
   sodipodi:docname="metacurious.svg">
  <defs
     id="defs2" />
  <sodipodi:namedview
     id="base"
     pagecolor="#ffffff"
     bordercolor="#666666"
     borderopacity="1.0"
     inkscape:pageopacity="0.0"
     inkscape:pageshadow="2"
     inkscape:zoom="1.4"
     inkscape:cx="139.36295"
     inkscape:cy="172.71148"
     inkscape:document-units="mm"
     inkscape:current-layer="layer1"
     showgrid="false"
     inkscape:window-width="1440"
     inkscape:window-height="851"
     inkscape:window-x="0"
     inkscape:window-y="1"
     inkscape:window-maximized="1"
     fit-margin-top="0"
     fit-margin-left="0"
     fit-margin-right="0"
     fit-margin-bottom="0" />
  <metadata
     id="metadata5">
    <rdf:RDF>
      <cc:Work
         rdf:about="">
        <dc:format>image/svg+xml</dc:format>
        <dc:type
           rdf:resource="http://purl.org/dc/dcmitype/StillImage" />
        <dc:title></dc:title>
      </cc:Work>
    </rdf:RDF>
  </metadata>
  <g
     inkscape:label="Layer 1"
     inkscape:groupmode="layer"
     id="layer1"
     transform="translate(-23.204921,-98.089996)">
    <g
       id="g1419"
       transform="translate(17.764881,-7.5595238)">
      <path
         sodipodi:nodetypes="sass"
         style="fill:#241c1c;stroke-width:0.4112381"
         d="m 18.721542,151.42643 c -4.348454,8.50321 13.003381,25.94658 25.354051,27.34076 11.518827,1.30028 30.117498,-9.66137 28.735792,-19.58625 -1.108417,-7.96182 -51.0839,-13.6325 -54.089843,-7.75451 z"
         id="path1052"
         inkscape:connector-curvature="0" />
      <path
         inkscape:connector-curvature="0"
         id="path1014"
         d="m 18.721542,148.78058 c -4.348454,8.50321 13.003381,25.94658 25.354051,27.34076 11.518827,1.30028 30.117498,-9.66137 28.735792,-19.58625 -1.108417,-7.96182 -51.0839,-13.6325 -54.089843,-7.75451 z"
         style="fill:#800000;stroke-width:0.4112381"
         sodipodi:nodetypes="sass" />
      <path
         sodipodi:nodetypes="cssssssscsc"
         style="fill:#e3dedb;stroke-width:0.4112381"
         d="m 42.755236,113.02178 c -0.575131,1.49777 -14.478206,5.33443 -16.231145,13.35589 -0.970967,4.44315 -5.859702,23.96999 -5.534692,24.85975 1.193637,3.26775 8.526317,12.43791 11.368932,12.86428 0,0 20.908824,1.19879 23.693424,1.99461 2.191926,0.62645 17.901776,-6.34973 14.680761,-13.18979 -3.961407,-8.4123 0.751216,-16.43944 -0.0069,-24.4249 -0.35874,-3.7785 -8.226272,-9.39248 -8.738751,-12.42079 -0.494936,-2.92464 -6.280956,-7.25696 -8.443555,-7.86732 -0.690285,-0.67478 -9.606656,1.7517 -10.788032,4.82827 z"
         id="path936"
         inkscape:connector-curvature="0" />
      <path
         inkscape:connector-curvature="0"
         id="path930"
         d="m 36.31433,105.97052 c -2.575499,0.85 -10.927701,9.2383 -11.623594,11.70482 -0.996835,3.53318 -11.434134,25.10999 -9.717596,27.86227 2.003972,3.21315 4.814627,4.75609 7.548781,8.72639 0,0 -1.461035,-6.90643 0.635167,-9.53352 2.150073,-2.6946 4.262722,-8.54129 4.262722,-8.54129 -0.611688,2.7333 0.432335,-11.36176 1.358675,-12.47722 8.101361,-9.75534 13.067125,-6.66252 13.071324,-7.39226 0.01919,-3.33433 2.053483,-5.18071 6.798406,-5.22858 1.438507,-0.0145 3.019069,-2.07849 4.648698,-1.95079 1.643103,0.12875 1.064298,2.64915 2.711854,2.95867 3.299309,0.61983 6.424783,2.33459 5.591616,4.84598 -0.838323,2.52693 0.281445,2.31783 2.002292,3.79504 4.320883,3.70913 4.320881,3.70913 6.567773,11.61472 1.349524,4.74824 -2.565422,8.3638 -1.383716,15.63229 0.270909,1.66633 1.830495,5.44467 -2.645962,13.47545 -0.816485,1.46478 9.912409,-2.21976 9.07306,-6.4232 -1.472131,-7.3724 -0.990933,-6.93357 -0.555437,-12.92279 0.148448,-2.04156 -0.391591,-13.13603 -0.680103,-15.79112 -0.842965,-7.75754 -3.960204,-13.5474 -5.415721,-14.23734 -6.620394,-3.13818 -12.025013,-2.96003 -14.484762,-5.36451 -0.690285,-0.67478 -16.934669,-1.02654 -17.763477,-0.75301 z"
         style="fill:#a05a2c;stroke-width:0.4112381"
         sodipodi:nodetypes="csscscsssssssssssssscc" />
      <path
         sodipodi:nodetypes="cccssscccc"
         inkscape:connector-curvature="0"
         id="path932"
         d="m 41.394685,115.44608 c -1.766379,0.0446 -8.548796,3.02597 -10.71976,4.41471 -3.092498,1.97825 -2.905699,8.5788 -3.37602,9.48831 -1.017119,1.96688 -0.413464,7.2411 -4.115512,15.06937 -0.81261,1.71833 4.444966,1.48049 5.645134,-1.97404 0.999493,-2.87692 2.803761,-1.72721 5.256525,-5.90197 3.709157,-6.31323 4.432707,-2.71253 7.870322,-6.77064 4.583877,-5.41126 2.275263,-11.83548 -0.184486,-14.23996 -0.06471,-0.0633 -0.193474,-0.0904 -0.376203,-0.0858 z"
         style="fill:#6c5353;stroke-width:0.4112381" />
      <path
         sodipodi:nodetypes="cccccccccc"
         inkscape:connector-curvature="0"
         id="path934"
         d="m 61.590656,118.94023 c -0.03784,7e-4 -0.07034,0.007 -0.09767,0.0202 -3.116549,1.45569 -7.41975,6.75525 -4.883423,13.37799 1.902076,4.96664 3.775784,1.80755 5.188312,8.99222 0.93407,4.75102 3.016803,4.26301 3.008601,7.3086 -0.0098,3.65705 4.873766,5.62038 4.675169,3.73 -0.904769,-8.61211 1.408555,-13.39045 1.099156,-15.58303 -0.14306,-1.01388 2.216174,-7.18102 -0.04806,-10.0707 -1.699135,-2.16848 -7.769219,-7.79698 -8.942088,-7.77524 z"
         style="fill:#483737;stroke-width:0.4112381" />
      <path
         sodipodi:nodetypes="cccccscccssssc"
         style="fill:#803300;stroke-width:0.4112381"
         d="m 28.10216,105.64952 c -2.575499,0.85 -7.459667,3.19082 -9.855213,4.72323 -3.092497,1.97825 -10.44794,5.70404 -10.44794,5.70404 l -0.891935,0.9493 c -0.665615,0.70851 -0.118271,2.19263 -0.588594,3.10214 -1.017117,1.96688 -1.163267,5.24136 -0.37414,8.3876 0.822698,3.28008 1.741027,5.15162 4.475181,9.12192 l 1.989027,2.88872 -0.504365,2.25464 c -0.611688,2.7333 -0.358547,3.55895 1.091406,3.55895 1.152353,0 2.70159,0.13623 5.855047,-4.71956 5.539596,-8.53004 5.554535,-26.66203 13.750187,-32.29497 3.815525,-2.62244 5.452663,-3.31506 3.597907,-3.51086 -1.275512,-0.13465 -4.750298,-0.0344 -8.096568,-0.16515 z"
         id="path840"
         inkscape:connector-curvature="0" />
      <path
         inkscape:connector-curvature="0"
         id="path928"
         d="m 76.299039,114.89567 c 2.137223,1.66973 5.944131,5.52226 7.681547,7.77355 2.242891,2.90627 7.908281,8.89688 7.908281,8.89688 l 0.519008,1.19472 c 0.387287,0.89165 -0.62904,2.10379 -0.493445,3.11869 0.293241,2.1948 -0.674856,5.32631 -2.479997,8.02131 -1.881933,2.80964 -3.378272,4.26118 -7.292458,7.07508 l -2.847614,2.04744 -0.286561,2.29253 c -0.347165,2.77931 -0.864228,3.47099 -2.229022,2.9814 -1.084673,-0.38911 -2.58892,-0.78399 -3.917559,-6.41939 -2.333985,-9.89956 1.718371,-25.833 -2.037869,-35.04112 -2.678643,-6.56647 -2.865338,-3.44354 0.261843,-4.87624 0.87759,-0.40207 4.526076,2.39783 5.213846,2.93515 z"
         style="fill:#803300;stroke-width:0.4112381"
         sodipodi:nodetypes="cccccscccssscc" />
      <g
         transform="translate(115.88115,9.4395901)"
         id="g971">
        <path
           sodipodi:nodetypes="ssss"
           style="fill:#e3dbdb;stroke-width:0.4112381"
           d="m -52.152804,123.55614 c -0.841703,-0.0918 -2.384315,3.15594 -0.499847,4.62947 1.225377,0.95817 4.178689,1.41995 4.524209,-0.95001 0.182482,-1.25166 -2.481394,-3.51109 -4.024362,-3.67946 z"
           id="path960"
           inkscape:connector-curvature="0" />
        <path
           inkscape:connector-curvature="0"
           id="path962"
           d="m -50.999977,123.96719 c -0.769479,-0.35326 -3.007975,2.21572 -1.123507,3.68925 1.225377,0.95817 2.911224,0.52231 3.536746,-1.16262 0.224406,-0.60447 -0.51803,-1.11351 -0.833314,-1.41919 -0.447458,-0.43384 -0.580072,-0.64841 -1.579925,-1.10744 z"
           style="fill:#483737;stroke-width:0.4112381"
           sodipodi:nodetypes="sssss" />
        <path
           sodipodi:nodetypes="aaaa"
           style="fill:#ffffff;stroke-width:0.4112381"
           d="m -50.175505,126.36783 c -0.122415,0.45456 0.557818,1.14369 1.003905,0.9933 0.415227,-0.13998 0.510887,-1.00986 0.183958,-1.30162 -0.305209,-0.27238 -1.081486,-0.0867 -1.187863,0.30832 z"
           id="path966"
           inkscape:connector-curvature="0" />
      </g>
      <g
         id="g979"
         transform="matrix(-1,0,0,1,-18.260535,5.1018326)">
        <path
           inkscape:connector-curvature="0"
           id="path973"
           d="m -52.152804,123.55614 c -0.841703,-0.0918 -2.384315,3.15594 -0.499847,4.62947 1.225377,0.95817 4.178689,1.41995 4.524209,-0.95001 0.182482,-1.25166 -2.481394,-3.51109 -4.024362,-3.67946 z"
           style="fill:#e3dbdb;stroke-width:0.4112381"
           sodipodi:nodetypes="ssss" />
        <path
           sodipodi:nodetypes="sssss"
           style="fill:#483737;stroke-width:0.4112381"
           d="m -50.999977,123.96719 c -0.769479,-0.35326 -3.007975,2.21572 -1.123507,3.68925 1.225377,0.95817 2.911224,0.52231 3.536746,-1.16262 0.224406,-0.60447 -0.51803,-1.11351 -0.833314,-1.41919 -0.447458,-0.43384 -0.580072,-0.64841 -1.579925,-1.10744 z"
           id="path975"
           inkscape:connector-curvature="0" />
        <path
           inkscape:connector-curvature="0"
           id="path977"
           d="m -50.175505,126.36783 c -0.122415,0.45456 0.557818,1.14369 1.003905,0.9933 0.415227,-0.13998 0.510887,-1.00986 0.183958,-1.30162 -0.305209,-0.27238 -1.081486,-0.0867 -1.187863,0.30832 z"
           style="fill:#ffffff;stroke-width:0.4112381"
           sodipodi:nodetypes="aaaa" />
      </g>
      <path
         style="fill:#241c1c;stroke-width:0.4112381"
         d="m 61.590656,118.94023 c -0.03784,7e-4 -0.07034,0.007 -0.09767,0.0202 -2.833067,2.11715 -4.301446,3.25897 -4.410953,5.53498 3.413981,3.07676 9.917897,-2.35018 11.330425,4.83449 0.93407,4.75102 2.477742,9.64889 2.168343,7.45631 -0.14306,-1.01388 2.216174,-7.18102 -0.04806,-10.0707 -1.699135,-2.16848 -7.769219,-7.79698 -8.942088,-7.77524 z"
         id="path981"
         inkscape:connector-curvature="0"
         sodipodi:nodetypes="cccccccc" />
      <path
         sodipodi:nodetypes="cccccccc"
         inkscape:connector-curvature="0"
         id="path983"
         d="m 41.394694,115.44608 c 0.03568,0.0126 1.103955,0.64311 1.125715,0.66421 2.018669,2.90406 2.436669,4.26246 1.821187,6.45641 -4.211434,1.83998 -9.091875,-5.78966 -12.702839,0.58025 -2.387833,4.21223 -5.400433,8.37111 -4.413889,6.38872 0.456181,-0.91668 0.167128,-7.65509 3.228626,-9.68098 2.297419,-1.52028 9.835319,-4.79994 10.941191,-4.40861 z"
         style="fill:#241c1c;stroke-width:0.4112381" />
      <g
         id="g18937">
        <path
           sodipodi:nodetypes="sssssss"
           style="fill:#784421;stroke-width:0.34234342"
           d="m 50.218685,190.34808 c -5.882892,1.1982 -15.53076,-1.34384 -22.13593,-4.36598 -1.925851,-0.88116 -4.719894,-6.89741 -3.287436,-12.35698 1.388677,-5.29272 6.95493,-10.05595 8.292755,-9.50475 3.845514,1.58441 21.77143,0.66356 23.557803,8.37894 0.189811,0.81979 1.355125,5.0646 0.562987,8.544 -0.669423,2.94038 -4.457576,8.78894 -6.990179,9.30477 z"
           id="path1038"
           inkscape:connector-curvature="0" />
        <path
           style="fill:#c87137;stroke-width:0.34234342"
           d="m 32.358331,164.1017 c -3.412054,0.47122 -7.008164,6.83691 -7.82448,10.60959 -0.819618,3.78794 -0.09344,11.12706 3.77992,10.99533 7.234507,-0.24606 12.112841,-17.52889 5.796058,-21.06399 -0.623777,-0.34908 -1.119634,-0.62819 -1.751498,-0.54093 z m -0.01148,1.70074 c 0.439788,-0.0206 0.886905,0.11757 1.324541,0.34358 4.981061,2.57237 0.456259,17.09024 -5.109498,17.76134 -2.77172,0.33417 -3.345812,-5.20563 -3.009773,-7.97713 0.415004,-3.42277 3.716239,-9.98323 6.79473,-10.12779 z"
           id="path1036"
           inkscape:connector-curvature="0"
           sodipodi:nodetypes="csscccccsc" />
        <path
           sodipodi:nodetypes="scscss"
           inkscape:connector-curvature="0"
           id="path1041"
           d="m 53.805069,185.38685 c -1.091672,2.24409 -3.52155,2.85091 -5.546172,5.02881 1.495006,0.0453 0.09558,-0.046 1.480029,-0.093 7.234507,-0.24606 11.497181,-17.01459 5.180398,-20.54968 -0.351014,-0.19644 1.50813,2.68248 1.530569,6.60229 0.01744,3.04597 -1.646714,6.95982 -2.644821,9.01158 z"
           style="fill:#c87137;stroke-width:0.34234342" />
        <path
           style="fill:#ffffff;stroke-width:0.01990021"
           d="m 50.484849,181.48843 c -0.05711,0.0845 -0.155286,0.1518 -0.25268,0.17298 -0.108604,0.0236 -0.266008,-0.0134 -0.339483,-0.0797 -0.05663,-0.0511 -0.149472,-0.23043 -0.13932,-0.26899 0.0037,-0.014 -0.0138,-0.0308 -0.03895,-0.0374 -0.02502,-0.006 -0.639486,-0.12205 -1.365333,-0.25653 -0.72585,-0.1345 -1.338292,-0.24942 -1.360999,-0.2554 -0.03649,-0.01 -0.04836,0.005 -0.103535,0.13043 -0.08832,0.2004 -0.24304,0.37187 -0.438405,0.48595 l -0.155126,0.0906 0.03588,0.3822 c 0.01972,0.2102 0.09313,0.98529 0.163103,1.7224 l 0.127209,1.3402 0.120313,0.0439 c 0.06616,0.0241 0.148281,0.0657 0.182462,0.0923 0.09089,0.0709 0.181413,0.22074 0.209864,0.34726 0.02097,0.0932 0.01836,0.13507 -0.01655,0.26447 -0.04943,0.18508 -0.101976,0.25669 -0.258674,0.35523 -0.256536,0.16133 -0.584707,0.0914 -0.754035,-0.16059 -0.06486,-0.0965 -0.121632,-0.29147 -0.104188,-0.35774 0.0049,-0.0185 0.0028,-0.0399 -0.0045,-0.0475 -0.01906,-0.0199 -1.891054,-0.96804 -1.899379,-0.96189 -0.0095,0.007 -0.999013,2.18582 -1.007217,2.21764 -0.0036,0.0139 0.01468,0.0554 0.04054,0.0921 0.09707,0.13774 0.08607,0.34681 -0.02548,0.4837 -0.06933,0.0851 -0.143544,0.12796 -0.256968,0.14831 -0.121722,0.0218 -0.211826,-0.007 -0.315026,-0.1011 -0.196547,-0.17904 -0.164819,-0.51003 0.06222,-0.64908 l 0.06158,-0.0378 -0.07141,-1.27421 -0.07142,-1.27421 -0.10751,-0.039 c -0.283856,-0.10291 -0.427345,-0.39859 -0.345075,-0.71109 l 0.03214,-0.12212 -1.229493,-1.98777 c -0.676221,-1.09328 -1.258324,-2.03103 -1.293546,-2.08389 l -0.06405,-0.0961 -0.08511,0.0105 c -0.240012,0.0297 -0.500049,-0.13249 -0.585685,-0.36542 -0.09948,-0.2705 -0.0031,-0.55636 0.241427,-0.71608 0.132282,-0.0864 0.280929,-0.10442 0.466354,-0.0565 l 0.15097,0.039 1.220713,-1.16028 c 0.671407,-0.63814 1.252329,-1.19131 1.290953,-1.22923 l 0.07022,-0.069 -0.08793,-0.16504 c -0.09404,-0.17653 -0.143567,-0.3727 -0.138956,-0.5505 0.0041,-0.15567 0.100984,-0.44927 0.188432,-0.57047 0.144829,-0.20083 0.390082,-0.36523 0.624631,-0.41879 0.176792,-0.0404 0.285494,-0.0423 0.477619,-0.009 l 0.146782,0.0258 0.885537,-1.38423 0.88552,-1.38424 -0.04108,-0.11796 c -0.04843,-0.13913 -0.05273,-0.23401 -0.0168,-0.37102 0.05523,-0.2107 0.238104,-0.37989 0.459041,-0.42464 0.135762,-0.0275 0.336477,0.0244 0.448466,0.11597 0.0949,0.0776 0.183269,0.22787 0.202917,0.34487 0.01114,0.0669 0.0269,0.0915 0.07185,0.11261 0.524154,0.24604 3.912336,1.84749 3.94148,1.86297 0.03487,0.0185 0.05434,0.005 0.147373,-0.0999 0.135804,-0.15377 0.372221,-0.29263 0.569419,-0.33419 0.153053,-0.0323 0.374175,-0.0291 0.512397,0.007 0.323515,0.0852 0.632098,0.37012 0.738376,0.68184 0.192335,0.56412 -0.102506,1.1666 -0.662066,1.35287 -0.07715,0.0257 -0.187373,0.0493 -0.244914,0.0526 -0.05756,0.003 -0.11299,0.0103 -0.123317,0.0156 -0.01024,0.005 -0.140078,0.57752 -0.288446,1.27153 -0.14837,0.69399 -0.280959,1.30433 -0.294644,1.35629 l -0.02486,0.0945 0.09778,0.078 c 0.119092,0.095 0.185636,0.19942 0.219525,0.34457 0.02185,0.0937 0.01934,0.13341 -0.01739,0.27322 -0.03486,0.13261 -0.05519,0.17685 -0.107593,0.23347 -0.09836,0.10646 -0.204921,0.16995 -0.32873,0.19561 -0.21579,0.0449 -0.490649,-0.0739 -0.58541,-0.25289 -0.01835,-0.0346 -0.04035,-0.0648 -0.04896,-0.0671 -0.02535,-0.007 -3.247818,0.2782 -3.26646,0.28877 -0.01545,0.009 -0.233918,1.07582 -0.271192,1.32406 l -0.01525,0.10158 0.07728,0.0341 c 0.123567,0.0545 0.31266,0.22942 0.403957,0.37354 0.09889,0.15614 0.156805,0.33867 0.167389,0.52759 l 0.0075,0.13588 0.09564,0.0196 c 0.05258,0.0108 0.682183,0.12829 1.399098,0.26128 1.295008,0.24022 1.334658,0.24555 1.352432,0.18192 0.0126,-0.0453 0.14688,-0.13868 0.222869,-0.15529 0.195654,-0.0426 0.345817,0.0198 0.441215,0.18341 0.0825,0.14146 0.07968,0.30395 -0.0075,0.43315 z m 0.185211,-5.8469 c 0.145336,-0.68044 0.275694,-1.2811 0.289821,-1.33477 l 0.02559,-0.0976 -0.141633,-0.0618 c -0.415439,-0.18138 -0.68121,-0.62968 -0.636164,-1.07309 l 0.0145,-0.1424 -0.09172,-0.045 c -0.05046,-0.0247 -0.936031,-0.44329 -1.967977,-0.93007 -1.031953,-0.48679 -1.890716,-0.89275 -1.908362,-0.90212 -0.02347,-0.0125 -0.05101,0.005 -0.103245,0.063 -0.122518,0.13789 -0.352622,0.21639 -0.511668,0.17451 -0.02926,-0.008 -0.05932,-0.008 -0.06695,-7.9e-4 -0.0075,0.007 -0.405268,0.62451 -0.883723,1.37177 l -0.869925,1.35866 0.100415,0.11012 c 0.315131,0.34558 0.360605,0.84804 0.11467,1.26685 -0.05509,0.0936 -0.05998,0.11066 -0.04248,0.14675 0.01088,0.0225 0.254202,0.53152 0.540836,1.13129 0.286636,0.59978 0.531176,1.09772 0.54342,1.10653 0.01773,0.0128 1.299173,-0.0871 1.327297,-0.1035 0.0044,-0.002 0.08743,-0.41299 0.184841,-0.91225 0.09742,-0.49926 0.18337,-0.93187 0.191121,-0.96131 0.01004,-0.0381 0.0044,-0.0562 -0.01955,-0.0626 -0.06295,-0.0169 -0.201897,-0.15069 -0.253654,-0.24417 -0.07594,-0.13714 -0.09182,-0.27475 -0.05,-0.43359 0.08385,-0.31851 0.386025,-0.50302 0.690654,-0.42171 0.31105,0.083 0.476194,0.36218 0.40998,0.6931 l -0.02951,0.14753 1.234713,0.8071 1.234711,0.80711 0.112325,-0.0665 c 0.06174,-0.0366 0.150519,-0.0727 0.197209,-0.0801 0.04679,-0.007 0.08838,-0.027 0.09257,-0.0436 0.0043,-0.0165 0.126679,-0.58673 0.271951,-1.26718 z m -2.027767,0.80548 -1.241959,-0.81188 -0.07867,0.0559 c -0.04304,0.031 -0.122582,0.0687 -0.176684,0.0838 -0.08819,0.0248 -0.100191,0.0347 -0.115847,0.0984 -0.03354,0.13324 -0.347649,1.76473 -0.341583,1.77514 0.008,0.0137 3.112766,-0.25853 3.152397,-0.27633 0.01665,-0.008 0.03329,-0.0362 0.03729,-0.0635 0.0071,-0.0474 -0.05057,-0.0874 -1.235016,-0.86173 z m -2.622297,6.84746 -0.164484,-1.7537 -0.187309,-0.0468 c -0.170349,-0.0426 -0.189057,-0.0436 -0.206684,-0.0108 -0.100509,0.18694 -1.208648,2.66198 -1.198773,2.67755 0.0071,0.0112 0.433629,0.23326 0.947881,0.49351 0.921417,0.46631 0.978154,0.49045 0.974785,0.41491 -8.64e-4,-0.0115 -0.07496,-0.80999 -0.165426,-1.77453 z m 0.179675,-4.55456 c 0.06691,-0.33035 0.11811,-0.61245 0.113662,-0.62688 -0.0057,-0.0186 -0.15835,-0.0132 -0.525843,0.0188 -0.284798,0.0248 -0.519525,0.0515 -0.521611,0.0595 -0.0047,0.018 0.551859,1.18114 0.572139,1.19567 0.0081,0.006 0.0656,0.0132 0.12775,0.0166 0.08984,0.005 0.112843,-7.8e-4 0.112592,-0.0285 -4.06e-4,-0.019 0.05439,-0.30476 0.121302,-0.63511 z m -0.989556,2.52881 -0.106241,-0.0923 -1.007351,0.9998 -1.007372,0.99979 0.03093,0.0744 c 0.03943,0.0949 0.06687,0.25464 0.05305,0.30935 -0.0059,0.0232 -0.0049,0.0481 0.0014,0.0551 0.01891,0.0199 0.893739,0.46009 0.901692,0.45374 0.0038,-0.003 0.282388,-0.60913 0.618939,-1.34675 0.33656,-0.73761 0.613983,-1.34553 0.616501,-1.35093 0.0029,-0.006 -0.04327,-0.0514 -0.101647,-0.10215 z m -0.28701,-0.37438 c -0.169375,-0.38812 -0.105805,-0.82144 0.16524,-1.12651 l 0.07475,-0.0841 -0.06504,-0.13422 c -0.03573,-0.0738 -0.186316,-0.38839 -0.33455,-0.69904 -0.148236,-0.31067 -0.273774,-0.57343 -0.278976,-0.58394 -0.0064,-0.013 -4.510701,0.36155 -4.557335,0.37901 -0.0016,5.5e-4 -0.01312,0.0188 -0.02663,0.0393 -0.02044,0.0331 0.153423,0.32442 1.279152,2.14309 0.921468,1.48867 1.31252,2.10367 1.335813,2.10084 0.110388,-0.0134 0.250915,0.009 0.341406,0.0538 0.0528,0.0263 0.09731,0.0468 0.09903,0.0456 0.01158,-0.007 2.01649,-2.00244 2.017825,-2.00752 8.64e-4,-0.004 -0.02191,-0.0604 -0.05069,-0.12636 z m -1.461478,3.26767 -0.450104,-0.22869 -0.109193,0.0699 c -0.06006,0.0385 -0.111466,0.077 -0.114123,0.0859 -0.01251,0.0387 0.134768,2.49646 0.148076,2.47639 0.0362,-0.0547 0.958466,-2.08404 0.966516,-2.12687 0.0083,-0.0463 -0.0061,-0.0555 -0.441107,-0.2765 z m 0.341745,-7.3169 -0.462133,-0.96433 -0.151319,0.0115 c -0.123892,0.009 -0.186147,0.002 -0.343423,-0.0405 -0.114872,-0.0311 -0.22546,-0.0732 -0.275084,-0.10483 l -0.08297,-0.0529 -1.289793,1.22728 c -0.709362,0.67503 -1.298686,1.23966 -1.30958,1.25478 -0.01099,0.015 -0.01076,0.0393 3.5e-5,0.0536 0.01423,0.0187 0.63313,-0.0284 2.20056,-0.16737 1.199416,-0.10638 2.183489,-0.1932 2.186805,-0.19295 0.01613,7.8e-4 -0.04353,-0.12792 -0.473089,-1.0243 z"
           id="path1378"
           inkscape:connector-curvature="0" />
      </g>
      <g
         id="g18927">
        <path
           inkscape:connector-curvature="0"
           id="path1006"
           d="m 45.601079,155.63852 c -8.334362,-1.61327 -6.164207,6.66967 -6.487808,12.94727 -0.199726,3.87452 10.733075,5.41278 11.526397,1.61509 1.301972,-6.23263 0.0576,-13.5759 -5.038589,-14.56236 z"
           style="fill:#deaa87;stroke-width:0.4112381"
           sodipodi:nodetypes="ssss" />
        <path
           sodipodi:nodetypes="ssss"
           style="fill:#e9afaf;stroke-width:0.29709795"
           d="m 45.514175,157.84589 c -6.021139,-1.1655 -4.453316,4.81849 -4.6871,9.35373 -0.144292,2.79914 7.754083,3.91045 8.327216,1.16682 0.940607,-4.50275 0.04161,-9.80788 -3.640116,-10.52055 z"
           id="path1008"
           inkscape:connector-curvature="0" />
        <path
           sodipodi:nodetypes="csssscsssscc"
           style="fill:#e9c6af;stroke-width:0.4112381"
           d="m 38.826701,140.39225 c -3.643336,2.71092 -2.280506,14.97496 -5.347215,18.03389 -1.389786,1.38626 -5.425017,-4.34658 -7.145611,-1.7995 -1.249989,1.85042 2.03283,6.29747 6.566529,9.56366 2.783958,2.00563 7.135813,1.36071 8.490031,0.54072 3.121245,-1.88994 4.652907,-7.29763 4.652907,-7.29763 0,0 -0.332168,7.27091 3.511131,8.50644 2.315069,0.74425 5.568531,2.05597 8.049679,0.50482 3.852687,-2.40855 9.615813,-5.80759 6.744088,-8.25939 -2.486326,-2.12276 -7.655077,2.44279 -9.141447,-1.26902 -1.251487,-3.12525 2.445451,-14.29446 1.464622,-15.36956 -1.759363,-2.41203 -15.449168,-4.68684 -17.844714,-3.15443 z"
           id="path940"
           inkscape:connector-curvature="0" />
        <path
           inkscape:connector-curvature="0"
           id="path938"
           d="m 39.895779,142.1295 c -3.092497,1.97825 -0.828162,11.02923 5.548173,10.93527 7.600343,-0.11199 12.016777,-6.57907 9.557028,-8.98355 -1.759363,-2.41203 -12.709655,-3.48413 -15.105201,-1.95172 z"
           style="fill:#483737;stroke-width:0.4112381"
           sodipodi:nodetypes="cscc" />
        <path
           sodipodi:nodetypes="cscc"
           style="fill:#2b1100;stroke-width:0.1101718"
           d="m 47.372644,150.15368 c 0.6347,0.75129 2.95819,-0.17008 2.70777,-1.86005 -0.2985,-2.01438 -2.17206,-2.95851 -2.72361,-2.22028 -0.57832,0.5525 -0.47581,3.49836 0.0158,4.08033 z"
           id="path18893"
           inkscape:connector-curvature="0" />
        <path
           inkscape:connector-curvature="0"
           id="path18895"
           d="m 45.500675,150.27916 c -0.71959,0.67043 -2.91694,-0.52088 -2.46719,-2.16904 0.53607,-1.96455 2.50867,-2.67903 2.96846,-1.88041 0.50846,0.61739 0.0561,3.53012 -0.50127,4.04945 z"
           style="fill:#2b1100;stroke-width:0.1101718"
           sodipodi:nodetypes="cscc" />
      </g>
    </g>
  </g>
</svg>
