<?xml version="1.0" encoding="UTF-8" standalone="no"?>
<!-- Created with Inkscape (http://www.inkscape.org/) -->

<svg
   xmlns:dc="http://purl.org/dc/elements/1.1/"
   xmlns:cc="http://creativecommons.org/ns#"
   xmlns:rdf="http://www.w3.org/1999/02/22-rdf-syntax-ns#"
   xmlns:svg="http://www.w3.org/2000/svg"
   xmlns="http://www.w3.org/2000/svg"
   xmlns:sodipodi="http://sodipodi.sourceforge.net/DTD/sodipodi-0.dtd"
   xmlns:inkscape="http://www.inkscape.org/namespaces/inkscape"
   width="82.627525mm"
   height="88.947418mm"
   viewBox="0 0 82.627526 88.947418"
   version="1.1"
   id="svg8"
   inkscape:version="0.92.2 5c3e80d, 2017-08-06"
   sodipodi:docname="metacurious.svg">
  <defs
     id="defs2" />
  <sodipodi:namedview
     id="base"
     pagecolor="#ffffff"
     bordercolor="#666666"
     borderopacity="1.0"
     inkscape:pageopacity="0.0"
     inkscape:pageshadow="2"
     inkscape:zoom="1.4142136"
     inkscape:cx="-7.1514636"
     inkscape:cy="147.07438"
     inkscape:document-units="mm"
     inkscape:current-layer="layer1"
     showgrid="false"
     inkscape:window-width="1440"
     inkscape:window-height="851"
     inkscape:window-x="0"
     inkscape:window-y="1"
     inkscape:window-maximized="1"
     fit-margin-top="0"
     fit-margin-left="0"
     fit-margin-right="0"
     fit-margin-bottom="0" />
  <metadata
     id="metadata5">
    <rdf:RDF>
      <cc:Work
         rdf:about="">
        <dc:format>image/svg+xml</dc:format>
        <dc:type
           rdf:resource="http://purl.org/dc/dcmitype/StillImage" />
        <dc:title />
      </cc:Work>
    </rdf:RDF>
  </metadata>
  <g
     inkscape:label="Layer 1"
     inkscape:groupmode="layer"
     id="layer1"
     transform="translate(-27.913095,-94.144063)">
    <path
       inkscape:connector-curvature="0"
       id="path1052"
       d="m 36.921096,141.52346 c -4.348454,8.50321 11.521524,26.48256 25.448545,28.09671 11.079155,1.28408 29.588331,-8.07387 28.206625,-17.99875 -1.108417,-7.96182 -50.649227,-15.97595 -53.65517,-10.09796 z"
       style="fill:#241c1c;stroke-width:0.4112381"
       sodipodi:nodetypes="ssss" />
    <path
       sodipodi:nodetypes="sass"
       style="fill:#17a2b8;stroke-width:0.4112381;fill-opacity:1"
       d="m 37.497509,139.45402 c -4.348454,8.50321 11.814822,27.36761 24.342965,29.1078 11.481749,1.59485 30.117498,-9.66137 28.735792,-19.58625 -1.108417,-7.96182 -50.072814,-15.39954 -53.078757,-9.52155 z"
       id="path1014"
       inkscape:connector-curvature="0" />
    <g
       id="g19268">
      <path
         inkscape:connector-curvature="0"
         id="path1038"
         d="m 67.983566,182.78856 c -5.882892,1.1982 -15.53076,-1.34384 -22.13593,-4.36598 -1.925851,-0.88116 -4.719894,-6.89741 -3.287436,-12.35698 1.388677,-5.29272 6.95493,-10.05595 8.292755,-9.50475 3.845514,1.58441 21.77143,0.66356 23.557803,8.37894 0.189811,0.81979 1.355125,5.0646 0.562987,8.544 -0.669423,2.94038 -4.457576,8.78894 -6.990179,9.30477 z"
         style="fill:#784421;stroke-width:0.34234342"
         sodipodi:nodetypes="sssssss" />
      <path
         sodipodi:nodetypes="csscccccsc"
         inkscape:connector-curvature="0"
         id="path1036"
         d="m 50.123212,156.54218 c -3.412054,0.47122 -7.008164,6.83691 -7.82448,10.60959 -0.819618,3.78794 -0.09344,11.12706 3.77992,10.99533 7.234507,-0.24606 12.112841,-17.52889 5.796058,-21.06399 -0.623777,-0.34908 -1.119634,-0.62819 -1.751498,-0.54093 z m -0.01148,1.70074 c 0.439788,-0.0206 0.886905,0.11757 1.324541,0.34358 4.981061,2.57237 0.456259,17.09024 -5.109498,17.76134 -2.77172,0.33417 -3.345812,-5.20563 -3.009773,-7.97713 0.415004,-3.42277 3.716239,-9.98323 6.79473,-10.12779 z"
         style="fill:#c87137;stroke-width:0.34234342" />
      <path
         style="fill:#c87137;stroke-width:0.34234342"
         d="m 71.56995,177.82733 c -1.091672,2.24409 -3.138374,3.8249 -5.592944,5.19251 0.585501,-0.0208 1.215532,-0.0624 1.799653,-0.15748 3.005424,-0.48904 6.220364,-5.09526 7.411209,-10.08009 1.032617,-4.32249 0.496113,-9.00146 -2.437517,-10.64322 -0.351014,-0.19644 1.441984,2.75689 1.464423,6.6767 0.01744,3.04597 -1.646714,6.95982 -2.644821,9.01158 z"
         id="path1041"
         inkscape:connector-curvature="0"
         sodipodi:nodetypes="ccsscssc" />
    </g>
    <g
       id="g19216"
       transform="rotate(14.572547,65.920653,132.2729)">
      <path
         sodipodi:nodetypes="cssssssscsc"
         style="fill:#e3dedb;stroke-width:0.4112381"
         d="m 60.520117,105.46226 c -0.575131,1.49777 -14.478206,5.33443 -16.231145,13.35589 -0.970967,4.44315 -5.859702,23.96999 -5.534692,24.85975 1.193637,3.26775 8.526317,12.43791 11.368932,12.86428 0,0 20.908824,1.19879 23.693424,1.99461 2.191926,0.62645 17.901776,-6.34973 14.680761,-13.18979 -3.961407,-8.4123 0.751216,-16.43944 -0.0069,-24.4249 -0.35874,-3.7785 -8.226272,-9.39248 -8.738751,-12.42079 -0.494936,-2.92464 -6.280956,-7.25696 -8.443555,-7.86732 -0.690285,-0.674784 -9.606656,1.7517 -10.788032,4.82827 z"
         id="path936"
         inkscape:connector-curvature="0" />
      <path
         inkscape:connector-curvature="0"
         id="path930"
         d="m 54.079211,98.410996 c -2.575499,0.85 -10.927701,9.238304 -11.623594,11.704824 -0.996835,3.53318 -11.434134,25.10999 -9.717596,27.86227 2.003972,3.21315 4.814627,4.75609 7.548781,8.72639 0,0 -1.461035,-6.90643 0.635167,-9.53352 2.150073,-2.6946 4.262722,-8.54129 4.262722,-8.54129 -0.611688,2.7333 0.432335,-11.36176 1.358675,-12.47722 8.101361,-9.75534 13.067125,-6.66252 13.071324,-7.39226 0.01919,-3.33433 2.053483,-5.18071 6.798406,-5.22858 1.438507,-0.0145 3.019069,-2.07849 4.648698,-1.95079 1.643103,0.12875 1.064298,2.64915 2.711854,2.95867 3.299309,0.61983 6.424783,2.33459 5.591616,4.84598 -0.838323,2.52693 0.281445,2.31783 2.002292,3.79504 4.320883,3.70913 4.320881,3.70913 6.567773,11.61472 1.349524,4.74824 -2.565422,8.3638 -1.383716,15.63229 0.270909,1.66633 1.830495,5.44467 -2.645962,13.47545 -0.816485,1.46478 9.912409,-2.21976 9.07306,-6.4232 -1.472131,-7.3724 -0.990933,-6.93357 -0.555437,-12.92279 0.148448,-2.04156 -0.391591,-13.13603 -0.680103,-15.79112 -0.842965,-7.75754 -3.960204,-13.5474 -5.415721,-14.23734 -6.620394,-3.13818 -12.025013,-2.96003 -14.484762,-5.364514 -0.690285,-0.67478 -16.934669,-1.02654 -17.763477,-0.75301 z"
         style="fill:#a05a2c;stroke-width:0.4112381"
         sodipodi:nodetypes="csscscsssssssssssssscc" />
      <path
         sodipodi:nodetypes="cccssscccc"
         inkscape:connector-curvature="0"
         id="path932"
         d="m 59.159566,107.88656 c -1.766379,0.0446 -8.548796,3.02597 -10.71976,4.41471 -3.092498,1.97825 -2.905699,8.5788 -3.37602,9.48831 -1.017119,1.96688 -0.413464,7.2411 -4.115512,15.06937 -0.81261,1.71833 4.444966,1.48049 5.645134,-1.97404 0.999493,-2.87692 2.803761,-1.72721 5.256525,-5.90197 3.709157,-6.31323 4.432707,-2.71253 7.870322,-6.77064 4.583877,-5.41126 2.275263,-11.83548 -0.184486,-14.23996 -0.06471,-0.0633 -0.193474,-0.0904 -0.376203,-0.0858 z"
         style="fill:#6c5353;stroke-width:0.4112381" />
      <path
         sodipodi:nodetypes="cccccccccc"
         inkscape:connector-curvature="0"
         id="path934"
         d="m 79.355537,111.38071 c -0.03784,7e-4 -0.07034,0.007 -0.09767,0.0202 -3.116549,1.45569 -7.41975,6.75525 -4.883423,13.37799 1.902076,4.96664 3.775784,1.80755 5.188312,8.99222 0.93407,4.75102 3.016803,4.26301 3.008601,7.3086 -0.0098,3.65705 4.873766,5.62038 4.675169,3.73 -0.904769,-8.61211 1.408555,-13.39045 1.099156,-15.58303 -0.14306,-1.01388 2.216174,-7.18102 -0.04806,-10.0707 -1.699135,-2.16848 -7.769219,-7.79698 -8.942088,-7.77524 z"
         style="fill:#483737;stroke-width:0.4112381" />
      <path
         sodipodi:nodetypes="cccccscccssssc"
         style="fill:#803300;stroke-width:0.4112381"
         d="m 45.867041,98.089996 c -2.575499,0.85 -7.459667,3.190824 -9.855213,4.723234 -3.092497,1.97825 -10.44794,5.70404 -10.44794,5.70404 l -0.891935,0.9493 c -0.665615,0.70851 -0.118271,2.19263 -0.588594,3.10214 -1.017117,1.96688 -1.163267,5.24136 -0.37414,8.3876 0.822698,3.28008 1.741027,5.15162 4.475181,9.12192 l 1.989027,2.88872 -0.504365,2.25464 c -0.611688,2.7333 -0.358547,3.55895 1.091406,3.55895 1.152353,0 2.70159,0.13623 5.855047,-4.71956 5.539596,-8.53004 5.554535,-26.66203 13.750187,-32.29497 3.815525,-2.622444 5.452663,-3.315064 3.597907,-3.510864 -1.275512,-0.13465 -4.750298,-0.0344 -8.096568,-0.16515 z"
         id="path840"
         inkscape:connector-curvature="0" />
      <path
         inkscape:connector-curvature="0"
         id="path928"
         d="m 94.06392,107.33615 c 2.137223,1.66973 5.94413,5.52226 7.68155,7.77355 2.24289,2.90627 7.90828,8.89688 7.90828,8.89688 l 0.51901,1.19472 c 0.38728,0.89165 -0.62904,2.10379 -0.49345,3.11869 0.29324,2.1948 -0.67486,5.32631 -2.48,8.02131 -1.88193,2.80964 -3.37827,4.26118 -7.292454,7.07508 l -2.847614,2.04744 -0.286561,2.29253 c -0.347165,2.77931 -0.864228,3.47099 -2.229022,2.9814 -1.084673,-0.38911 -2.58892,-0.78399 -3.917559,-6.41939 -2.333985,-9.89956 1.718371,-25.833 -2.037869,-35.04112 -2.678643,-6.56647 -2.865338,-3.44354 0.261843,-4.87624 0.87759,-0.40207 4.526076,2.39783 5.213846,2.93515 z"
         style="fill:#803300;stroke-width:0.4112381"
         sodipodi:nodetypes="cccccscccssscc" />
      <g
         transform="translate(133.64603,1.8800663)"
         id="g971">
        <path
           sodipodi:nodetypes="ssss"
           style="fill:#e3dbdb;stroke-width:0.4112381"
           d="m -52.152804,123.55614 c -0.841703,-0.0918 -2.384315,3.15594 -0.499847,4.62947 1.225377,0.95817 4.178689,1.41995 4.524209,-0.95001 0.182482,-1.25166 -2.481394,-3.51109 -4.024362,-3.67946 z"
           id="path960"
           inkscape:connector-curvature="0" />
        <path
           inkscape:connector-curvature="0"
           id="path962"
           d="m -50.999977,123.96719 c -0.769479,-0.35326 -3.007975,2.21572 -1.123507,3.68925 1.225377,0.95817 2.911224,0.52231 3.536746,-1.16262 0.224406,-0.60447 -0.51803,-1.11351 -0.833314,-1.41919 -0.447458,-0.43384 -0.580072,-0.64841 -1.579925,-1.10744 z"
           style="fill:#483737;stroke-width:0.4112381"
           sodipodi:nodetypes="sssss" />
        <path
           sodipodi:nodetypes="aaaa"
           style="fill:#ffffff;stroke-width:0.4112381"
           d="m -50.175505,126.36783 c -0.122415,0.45456 0.557818,1.14369 1.003905,0.9933 0.415227,-0.13998 0.510887,-1.00986 0.183958,-1.30162 -0.305209,-0.27238 -1.081486,-0.0867 -1.187863,0.30832 z"
           id="path966"
           inkscape:connector-curvature="0" />
      </g>
      <g
         id="g979"
         transform="matrix(-1,0,0,1,-0.495654,-2.4576912)">
        <path
           inkscape:connector-curvature="0"
           id="path973"
           d="m -52.152804,123.55614 c -0.841703,-0.0918 -2.384315,3.15594 -0.499847,4.62947 1.225377,0.95817 4.178689,1.41995 4.524209,-0.95001 0.182482,-1.25166 -2.481394,-3.51109 -4.024362,-3.67946 z"
           style="fill:#e3dbdb;stroke-width:0.4112381"
           sodipodi:nodetypes="ssss" />
        <path
           sodipodi:nodetypes="sssss"
           style="fill:#483737;stroke-width:0.4112381"
           d="m -50.999977,123.96719 c -0.769479,-0.35326 -3.007975,2.21572 -1.123507,3.68925 1.225377,0.95817 2.911224,0.52231 3.536746,-1.16262 0.224406,-0.60447 -0.51803,-1.11351 -0.833314,-1.41919 -0.447458,-0.43384 -0.580072,-0.64841 -1.579925,-1.10744 z"
           id="path975"
           inkscape:connector-curvature="0" />
        <path
           inkscape:connector-curvature="0"
           id="path977"
           d="m -50.175505,126.36783 c -0.122415,0.45456 0.557818,1.14369 1.003905,0.9933 0.415227,-0.13998 0.510887,-1.00986 0.183958,-1.30162 -0.305209,-0.27238 -1.081486,-0.0867 -1.187863,0.30832 z"
           style="fill:#ffffff;stroke-width:0.4112381"
           sodipodi:nodetypes="aaaa" />
      </g>
      <path
         style="fill:#241c1c;stroke-width:0.4112381"
         d="m 79.355537,111.38071 c -0.03784,7e-4 -0.07034,0.007 -0.09767,0.0202 -2.833067,2.11715 -4.301446,3.25897 -4.410953,5.53498 3.413981,3.07676 9.917897,-2.35018 11.330425,4.83449 0.93407,4.75102 2.477742,9.64889 2.168343,7.45631 -0.14306,-1.01388 2.216174,-7.18102 -0.04806,-10.0707 -1.699135,-2.16848 -7.769219,-7.79698 -8.942088,-7.77524 z"
         id="path981"
         inkscape:connector-curvature="0"
         sodipodi:nodetypes="cccccccc" />
      <path
         sodipodi:nodetypes="cccccccc"
         inkscape:connector-curvature="0"
         id="path983"
         d="m 59.159575,107.88656 c 0.03568,0.0126 1.103955,0.64311 1.125715,0.66421 2.018669,2.90406 2.436669,4.26246 1.821187,6.45641 -4.211434,1.83998 -9.091875,-5.78966 -12.702839,0.58025 -2.387833,4.21223 -5.400433,8.37111 -4.413889,6.38872 0.456181,-0.91668 0.167128,-7.65509 3.228626,-9.68098 2.297419,-1.52028 9.835319,-4.79994 10.941191,-4.40861 z"
         style="fill:#241c1c;stroke-width:0.4112381" />
      <g
         transform="translate(17.764881,-7.5595238)"
         id="g18927">
        <path
           inkscape:connector-curvature="0"
           id="path1006"
           d="m 45.601079,155.63852 c -8.334362,-1.61327 -6.164207,6.66967 -6.487808,12.94727 -0.199726,3.87452 10.733075,5.41278 11.526397,1.61509 1.301972,-6.23263 0.0576,-13.5759 -5.038589,-14.56236 z"
           style="fill:#deaa87;stroke-width:0.4112381"
           sodipodi:nodetypes="ssss" />
        <path
           sodipodi:nodetypes="ssss"
           style="fill:#e9afaf;stroke-width:0.29709795"
           d="m 45.514175,157.84589 c -6.021139,-1.1655 -4.453316,4.81849 -4.6871,9.35373 -0.144292,2.79914 7.754083,3.91045 8.327216,1.16682 0.940607,-4.50275 0.04161,-9.80788 -3.640116,-10.52055 z"
           id="path1008"
           inkscape:connector-curvature="0" />
        <path
           sodipodi:nodetypes="csssscsssscc"
           style="fill:#e9c6af;stroke-width:0.4112381"
           d="m 38.826701,140.39225 c -3.643336,2.71092 -2.280506,14.97496 -5.347215,18.03389 -1.389786,1.38626 -5.425017,-4.34658 -7.145611,-1.7995 -1.249989,1.85042 2.03283,6.29747 6.566529,9.56366 2.783958,2.00563 7.135813,1.36071 8.490031,0.54072 3.121245,-1.88994 4.140764,-7.16449 4.140764,-7.16449 0,0 0.179975,7.13777 4.023274,8.3733 2.315069,0.74425 5.568531,2.05597 8.049679,0.50482 3.852687,-2.40855 9.615813,-5.80759 6.744088,-8.25939 -2.486326,-2.12276 -7.655077,2.44279 -9.141447,-1.26902 -1.251487,-3.12525 2.445451,-14.29446 1.464622,-15.36956 -1.759363,-2.41203 -15.449168,-4.68684 -17.844714,-3.15443 z"
           id="path940"
           inkscape:connector-curvature="0" />
        <path
           inkscape:connector-curvature="0"
           id="path938"
           d="m 39.895779,142.1295 c -3.092497,1.97825 -0.828162,11.02923 5.548173,10.93527 7.600343,-0.11199 12.016777,-6.57907 9.557028,-8.98355 -1.759363,-2.41203 -12.709655,-3.48413 -15.105201,-1.95172 z"
           style="fill:#483737;stroke-width:0.4112381"
           sodipodi:nodetypes="cscc" />
        <g
           id="g19222"
           transform="rotate(5.4328152,44.80293,142.90291)">
          <path
             inkscape:connector-curvature="0"
             id="path18893"
             d="m 47.372644,150.15368 c 0.6347,0.75129 2.95819,-0.17008 2.70777,-1.86005 -0.2985,-2.01438 -2.17206,-2.95851 -2.72361,-2.22028 -0.57832,0.5525 -0.47581,3.49836 0.0158,4.08033 z"
             style="fill:#2b1100;stroke-width:0.1101718"
             sodipodi:nodetypes="cscc" />
          <path
             sodipodi:nodetypes="cscc"
             style="fill:#2b1100;stroke-width:0.1101718"
             d="m 45.500675,150.27916 c -0.71959,0.67043 -2.91694,-0.52088 -2.46719,-2.16904 0.53607,-1.96455 2.50867,-2.67903 2.96846,-1.88041 0.50846,0.61739 0.0561,3.53012 -0.50127,4.04945 z"
             id="path18895"
             inkscape:connector-curvature="0" />
        </g>
        <g
           transform="matrix(1.1641922,0.13477588,-0.13477588,1.1641922,17.228181,-27.916825)"
           id="g19175">
          <path
             inkscape:connector-curvature="0"
             id="path19166"
             d="m 37.853124,153.18394 c -0.220142,0.2051 -0.750632,0.18319 -0.613041,-0.32103 0.163999,-0.60101 0.566672,-0.55972 0.707334,-0.3154 0.155553,0.18887 0.07622,0.47755 -0.09429,0.63643 z"
             style="fill:#a05a2c;stroke-width:0.0337046"
             sodipodi:nodetypes="cscc" />
          <path
             sodipodi:nodetypes="cscc"
             style="fill:#a05a2c;stroke-width:0.0337046"
             d="m 38.911458,154.77145 c -0.220142,0.2051 -0.750632,0.18319 -0.613041,-0.32103 0.163999,-0.60101 0.566672,-0.55972 0.707334,-0.3154 0.155553,0.18887 0.07622,0.47755 -0.09429,0.63643 z"
             id="path19168"
             inkscape:connector-curvature="0" />
          <path
             inkscape:connector-curvature="0"
             id="path19170"
             d="m 37.323957,155.82979 c -0.220142,0.2051 -0.750632,0.18319 -0.613041,-0.32103 0.163999,-0.60101 0.566672,-0.55972 0.707334,-0.3154 0.155553,0.18887 0.07622,0.47755 -0.09429,0.63643 z"
             style="fill:#a05a2c;stroke-width:0.0337046"
             sodipodi:nodetypes="cscc" />
        </g>
        <g
           id="g19183"
           transform="matrix(-1.0920063,-0.42547641,-0.42547641,1.0920063,157.85937,5.1769441)">
          <path
             sodipodi:nodetypes="cscc"
             style="fill:#a05a2c;stroke-width:0.0337046"
             d="m 37.853124,153.18394 c -0.220142,0.2051 -0.750632,0.18319 -0.613041,-0.32103 0.163999,-0.60101 0.566672,-0.55972 0.707334,-0.3154 0.155553,0.18887 0.07622,0.47755 -0.09429,0.63643 z"
             id="path19177"
             inkscape:connector-curvature="0" />
          <path
             inkscape:connector-curvature="0"
             id="path19179"
             d="m 38.911458,154.77145 c -0.220142,0.2051 -0.750632,0.18319 -0.613041,-0.32103 0.163999,-0.60101 0.566672,-0.55972 0.707334,-0.3154 0.155553,0.18887 0.07622,0.47755 -0.09429,0.63643 z"
             style="fill:#a05a2c;stroke-width:0.0337046"
             sodipodi:nodetypes="cscc" />
          <path
             sodipodi:nodetypes="cscc"
             style="fill:#a05a2c;stroke-width:0.0337046"
             d="m 37.323957,155.82979 c -0.220142,0.2051 -0.750632,0.18319 -0.613041,-0.32103 0.163999,-0.60101 0.566672,-0.55972 0.707334,-0.3154 0.155553,0.18887 0.07622,0.47755 -0.09429,0.63643 z"
             id="path19181"
             inkscape:connector-curvature="0" />
        </g>
        <path
           inkscape:connector-curvature="0"
           id="path19218"
           d="m 43.962228,166.5475 c -0.492167,2.25675 0.92368,2.57416 1.328248,-0.11236 0.553589,-3.67609 -0.308703,-4.56258 -1.328248,0.11236 z"
           style="fill:#de8787;stroke-width:0.29709795"
           sodipodi:nodetypes="sss" />
      </g>
    </g>
    <g
       transform="matrix(0.19734691,0.06413467,-0.06413467,0.19734691,43.392784,127.16962)"
       id="g19361">
      <path
         sodipodi:nodetypes="sscccscccccccccccssccs"
         inkscape:connector-curvature="0"
         id="path19357"
         d="m 162.42415,144.59325 c -1.18219,-0.0935 -5.73155,0.53118 -14.4554,1.9813 -6.30947,1.04878 -9.70296,1.63616 -11.65113,2.07462 -0.69432,0.13727 -1.22049,0.2513 -1.44935,0.32344 -0.17204,0.0542 -0.34208,0.13625 -0.50778,0.2364 -0.3755,0.1591 -0.60205,0.31734 -0.78351,0.49961 -0.63815,0.64095 -0.96655,1.29253 -0.96861,2.15706 -0.01,0.0665 -0.0189,0.13312 -0.0237,0.19911 -0.0148,0.2035 0.0512,0.52748 0.17564,0.93458 0.22518,0.92714 0.70202,2.07453 1.44761,3.58275 7.13085,14.42558 18.5315,24.95342 31.00049,28.62664 1.24091,0.36555 2.57834,0.69934 2.97221,0.74124 0.84464,0.0899 15.462,-5.29768 24.66694,-8.92243 5.55852,-2.05642 7.21406,-2.72149 7.40942,-3.16009 3.5e-4,-4.3e-4 0.002,-0.002 0.002,-0.002 0.52511,-0.67513 0.51192,-0.80766 -0.13894,-1.41828 -0.45702,-0.42875 -1.66852,-0.82541 -3.33225,-1.0903 -1.43777,-0.22892 -3.81409,-0.81894 -5.28101,-1.31147 -11.41676,-3.83324 -19.61568,-10.70897 -24.44995,-20.50416 -1.52639,-3.09292 -2.79446,-4.49813 -4.44119,-4.91998 -0.0491,-0.0126 -0.11294,-0.0219 -0.19176,-0.0281 z"
         style="fill:#f2f2f2;stroke-width:0.35988691" />
      <path
         style="fill:#5bc0d3;stroke-width:0.35988691;fill-opacity:1"
         d="m 162.42442,144.59331 c -1.18219,-0.0935 -5.73155,0.53118 -14.4554,1.98129 -6.30947,1.04877 -9.70296,1.63614 -11.65113,2.0746 -0.69432,0.13727 -1.22049,0.2513 -1.44935,0.32344 -0.17204,0.0542 -0.34208,0.13625 -0.50778,0.2364 -0.3755,0.1591 -0.60205,0.31734 -0.78351,0.4996 -0.63815,0.64095 -0.96655,1.29253 -0.96861,2.15705 -0.01,0.0665 -0.0189,0.13312 -0.0237,0.19911 -0.0148,0.2035 0.0512,0.52747 0.17564,0.93457 0.22518,0.92713 0.70202,2.07452 1.44761,3.58273 7.13085,14.42549 18.5315,24.95332 31.00049,28.62654 1.24091,0.36555 2.57834,0.69934 2.97221,0.74124 0.84464,0.0899 15.462,-5.29768 24.66694,-8.92243 5.55852,-2.05642 7.21406,-2.72149 7.40942,-3.16009 3.5e-4,-4.3e-4 0.002,-0.002 0.002,-0.002 0.52511,-0.67513 0.51192,-0.80766 -0.13894,-1.41828 -0.45702,-0.42875 -1.66852,-0.82541 -3.33225,-1.0903 -1.43777,-0.22892 -3.81409,-0.81893 -5.28101,-1.31146 -11.41676,-3.83322 -19.61568,-10.7089 -24.44995,-20.50402 -1.52639,-3.0929 -2.79446,-4.4981 -4.44119,-4.91995 -0.0491,-0.0126 -0.11294,-0.0219 -0.19176,-0.0281 z m -0.5552,2.94351 c 0.29338,0.0105 0.47492,0.0486 0.57335,0.11091 0.37156,0.23515 1.17343,1.49182 1.7815,2.79336 3.46137,7.40845 9.31427,13.72756 16.67303,17.99908 3.45257,2.00411 7.78333,3.91059 10.52999,4.63623 0.73398,0.19391 1.26164,0.52682 1.17304,0.73963 -0.0886,0.21282 -5.5723,2.38988 -12.18617,4.83775 -4.36308,1.61481 -8.07196,2.96762 -10.23206,3.73994 -1.16684,0.38478 -1.94397,0.61951 -2.16269,0.64351 -1.47088,-0.33957 -7.0179,-2.48068 -8.91398,-3.45622 -8.31579,-4.2784 -16.16176,-12.69782 -21.87948,-23.47783 -0.72093,-1.35909 -1.33028,-2.6278 -1.60637,-3.31945 -4e-5,-2.4e-4 1.1e-4,-4.6e-4 6e-5,-7.1e-4 -0.0637,-0.31364 -0.051,-0.54446 0.0199,-0.72652 0.0802,-0.11119 0.1885,-0.21456 0.33281,-0.31115 1.02888,-0.43198 4.12556,-0.96541 13.48865,-2.50355 7.76965,-1.2764 11.1372,-1.75033 12.40843,-1.705 z m -23.93853,19.9217 -0.0312,0.0118 -0.0123,-0.0143 -0.5185,0.18064 c -1.82871,0.44145 -7.62892,2.57588 -11.75039,4.24582 -2e-4,8e-5 -3.5e-4,-1.2e-4 -7.2e-4,-5e-5 -2.11664,0.79422 -3.18373,1.2444 -3.73602,1.62321 -0.29188,0.15052 -0.51145,0.27643 -0.56508,0.34568 -0.47991,0.61966 -0.45261,0.8039 0.23702,1.60023 0.57084,0.65916 2.92851,2.21694 5.59132,3.79025 2.07237,1.22445 4.32483,2.45837 6.09403,3.28567 6.21414,2.90581 13.84549,5.38914 20.62913,6.71298 1.76107,0.34368 3.60152,0.71269 4.08984,0.81999 0.48833,0.10731 2.93218,0.36596 5.43049,0.57531 l 3.90874,0.32752 0.42151,0.0378 0.005,-0.002 0.20736,0.0173 14.05264,-5.48807 c 7.72907,-3.01859 14.20546,-5.62039 14.39188,-5.78116 0.19495,-0.16813 -0.19073,-0.43223 -0.90749,-0.62159 -1.41958,-0.37505 -1.22021,-0.43854 -17.3668,5.56971 l -6.64751,2.47356 c -2.06249,0.7044 -3.52774,1.16923 -4.00197,1.25917 l -2.56083,-0.71898 c -5.3512,-1.50269 -9.84248,-3.81306 -14.71294,-7.56888 -3.15102,-2.43005 -7.76644,-7.16538 -10.09866,-10.36068 -0.76513,-1.04826 -1.61186,-1.94817 -2.03009,-2.17791 z m 52.5742,17.62764 -11.22838,4.41287 -10.31558,4.05381 c -0.4891,0.1361 -0.94806,0.246 -1.38105,0.3242 l -3.52393,-0.25997 c -7.61432,-0.56227 -17.26252,-2.73036 -24.8935,-5.59419 l -4.11863,-1.5459 -9.06689,2.9165 c -4.98697,1.60409 -9.24936,3.07352 -9.47149,3.26544 -0.0807,0.0697 0.56847,0.17918 1.83559,0.32354 1.72432,0.23067 5.7297,0.56863 12.60645,1.08839 3.07037,0.2369 6.54701,0.49819 10.69564,0.80094 l 25.54139,1.86388 11.03609,-3.93147 c 6.07014,-2.16252 12.74555,-4.53942 14.83397,-5.28163 2.08842,-0.74221 3.80724,-1.4888 3.81975,-1.65939 0.008,-0.10642 -0.57998,-0.23982 -1.42363,-0.35761 -0.11543,-0.0185 -0.24641,-0.0359 -0.38093,-0.0532 -0.24073,-0.029 -0.50535,-0.0528 -0.77521,-0.0777 -0.19095,-0.0176 -0.35192,-0.0377 -0.56697,-0.0534 l -0.0266,-0.002 -2.84412,-0.20754 z m 7.2183,1.97012 c -0.0674,-0.005 -1.72973,0.58357 -4.07269,1.42669 -2.77449,0.94414 -6.67477,2.32894 -10.97386,3.9092 -5.42552,1.99434 -8.82549,3.26742 -11.05427,4.16131 0,0 -3.39022,1.26725 -3.77561,1.39269 -0.63704,0.20733 -0.53305,1.60448 -0.25542,1.99348 0.45442,0.63667 -0.34092,1.12133 18.74184,-5.9176 2.50211,-0.92295 4.7333,-1.77385 6.63574,-2.5153 0.30465,-0.11216 0.49804,-0.18239 0.8089,-0.29688 1.63156,-0.60092 3.17972,-1.23314 3.44035,-1.40517 0.0175,-0.0116 0.0348,-0.0324 0.0524,-0.0512 0.26253,-0.12214 0.45525,-0.21891 0.48316,-0.25652 0.4645,-0.62627 0.49613,-1.87493 0.0915,-2.21971 -0.0182,-0.13233 -0.0569,-0.21628 -0.122,-0.22104 z m -56.78762,8.80976 c -6.9714,-0.50873 -13.87008,-0.96373 -18.80864,-1.23018 -3.70965,-0.23397 -6.40503,-0.38388 -6.56371,-0.33591 -0.0521,0.0157 -0.10147,0.0522 -0.15019,0.0976 l -0.34901,-0.0269 -0.0118,0.16124 c -0.22215,0.24855 -0.41213,0.7021 -0.4392,1.07375 -0.0271,0.3716 0.095,0.84796 0.27867,1.12613 l -0.0114,0.15633 -3.6e-4,0.005 0.29239,0.0206 c 1.21038,0.35668 7.84082,0.9288 25.39165,2.20954 18.90415,1.37953 24.04076,2.1771 25.30468,1.48575 1.02334,-0.55975 0.67318,-2.44969 0.52084,-2.48226 -0.0649,-0.0744 -4.50142,-0.61343 -10.09099,-1.05071 -4.48189,-0.38496 -9.89002,-0.81053 -15.36295,-1.20991 z"
         id="path19342"
         inkscape:connector-curvature="0"
         sodipodi:nodetypes="sscccscccccccccccssccsccsscccccccccccscccccccccsccccccccccccccccccccccccccccccscccccccccccccccccscccccccsccccccccccsccscccc" />
    </g>
  </g>
</svg>
